<svg xmlns="http://www.w3.org/2000/svg" width="960" height="640" viewBox="0 0 960 640" role="img" aria-label="CoverÜ state-loading marketplace state, Demo"><title>CoverÜ state-loading marketplace state, Demo</title><rect width="960" height="640" rx="28" fill="#FCFBF8"/><rect x="0" y="0" width="960" height="16" rx="8" fill="#17171A"/><rect x="40" y="36" width="880" height="70" rx="18" fill="#FFFFFF" stroke="#DDD9D2"/><g transform="translate(58 48)">
      <path d="M 36.34 9.20 C 31.28 4.60, 23.92 3.22, 17.02 6.44 C 8.28 10.58, 4.60 19.78, 6.90 28.98 C 9.20 36.34, 15.64 40.94, 23.00 43.24 C 30.36 40.94, 36.34 36.80, 39.56 31.28" fill="none" stroke="#DF0926" stroke-width="3.91" stroke-linecap="round"/>
      <path d="M 17.48 16.56 V 26.22 C 17.48 32.20, 28.52 32.20, 28.52 26.22 V 16.56" fill="none" stroke="#DF0926" stroke-width="2.82" stroke-linecap="round"/>
      <circle cx="18.86" cy="11.50" r="1.49" fill="#DF0926"/><circle cx="27.14" cy="11.50" r="1.49" fill="#DF0926"/>
    </g><path d="M1372 82Q1266 27 1151.0 -1.0Q1036 -29 911 -29Q538 -29 320.0 179.5Q102 388 102 745Q102 1103 320.0 1311.5Q538 1520 911 1520Q1036 1520 1151.0 1492.0Q1266 1464 1372 1409V1100Q1265 1173 1161.0 1207.0Q1057 1241 942 1241Q736 1241 618.0 1109.0Q500 977 500 745Q500 514 618.0 382.0Q736 250 942 250Q1057 250 1161.0 284.0Q1265 318 1372 391Z" transform="translate(120.00 70.00) scale(0.009277 -0.009277)" fill="#17171A"/><path d="M705 891Q586 891 523.5 805.5Q461 720 461 559Q461 398 523.5 312.5Q586 227 705 227Q822 227 884.0 312.5Q946 398 946 559Q946 720 884.0 805.5Q822 891 705 891ZM705 1147Q994 1147 1156.5 991.0Q1319 835 1319 559Q1319 283 1156.5 127.0Q994 -29 705 -29Q415 -29 251.5 127.0Q88 283 88 559Q88 835 251.5 991.0Q415 1147 705 1147Z" transform="translate(133.94 70.00) scale(0.009277 -0.009277)" fill="#17171A"/><path d="M1210 934Q1278 1038 1371.5 1092.5Q1465 1147 1577 1147Q1770 1147 1871.0 1028.0Q1972 909 1972 682V0H1612V584Q1613 597 1613.5 611.0Q1614 625 1614 651Q1614 770 1579.0 823.5Q1544 877 1466 877Q1364 877 1308.5 793.0Q1253 709 1251 550V0H891V584Q891 770 859.0 823.5Q827 877 745 877Q642 877 586.0 792.5Q530 708 530 551V0H170V1120H530V956Q596 1051 681.5 1099.0Q767 1147 870 1147Q986 1147 1075.0 1091.0Q1164 1035 1210 934Z" transform="translate(147.00 70.00) scale(0.009277 -0.009277)" fill="#17171A"/><path d="M530 162V-426H172V1120H530V956Q604 1054 694.0 1100.5Q784 1147 901 1147Q1108 1147 1241.0 982.5Q1374 818 1374 559Q1374 300 1241.0 135.5Q1108 -29 901 -29Q784 -29 694.0 17.5Q604 64 530 162ZM768 887Q653 887 591.5 802.5Q530 718 530 559Q530 400 591.5 315.5Q653 231 768 231Q883 231 943.5 315.0Q1004 399 1004 559Q1004 719 943.5 803.0Q883 887 768 887Z" transform="translate(166.79 70.00) scale(0.009277 -0.009277)" fill="#17171A"/><path d="M674 504Q562 504 505.5 466.0Q449 428 449 354Q449 286 494.5 247.5Q540 209 621 209Q722 209 791.0 281.5Q860 354 860 463V504ZM1221 639V0H860V166Q788 64 698.0 17.5Q608 -29 479 -29Q305 -29 196.5 72.5Q88 174 88 336Q88 533 223.5 625.0Q359 717 649 717H860V745Q860 830 793.0 869.5Q726 909 584 909Q469 909 370.0 886.0Q271 863 186 817V1090Q301 1118 417.0 1132.5Q533 1147 649 1147Q952 1147 1086.5 1027.5Q1221 908 1221 639Z" transform="translate(180.40 70.00) scale(0.009277 -0.009277)" fill="#17171A"/><path d="M1004 815Q957 837 910.5 847.5Q864 858 817 858Q679 858 604.5 769.5Q530 681 530 516V0H172V1120H530V936Q599 1046 688.5 1096.5Q778 1147 903 1147Q921 1147 942.0 1145.5Q963 1144 1003 1139Z" transform="translate(193.22 70.00) scale(0.009277 -0.009277)" fill="#17171A"/><path d="M674 504Q562 504 505.5 466.0Q449 428 449 354Q449 286 494.5 247.5Q540 209 621 209Q722 209 791.0 281.5Q860 354 860 463V504ZM1221 639V0H860V166Q788 64 698.0 17.5Q608 -29 479 -29Q305 -29 196.5 72.5Q88 174 88 336Q88 533 223.5 625.0Q359 717 649 717H860V745Q860 830 793.0 869.5Q726 909 584 909Q469 909 370.0 886.0Q271 863 186 817V1090Q301 1118 417.0 1132.5Q533 1147 649 1147Q952 1147 1086.5 1027.5Q1221 908 1221 639Z" transform="translate(202.59 70.00) scale(0.009277 -0.009277)" fill="#17171A"/><path d="M934 956V1556H1294V0H934V162Q860 63 771.0 17.0Q682 -29 565 -29Q358 -29 225.0 135.5Q92 300 92 559Q92 818 225.0 982.5Q358 1147 565 1147Q681 1147 770.5 1100.5Q860 1054 934 956ZM698 231Q813 231 873.5 315.0Q934 399 934 559Q934 719 873.5 803.0Q813 887 698 887Q584 887 523.5 803.0Q463 719 463 559Q463 399 523.5 315.0Q584 231 698 231Z" transform="translate(215.41 70.00) scale(0.009277 -0.009277)" fill="#17171A"/><path d="M705 891Q586 891 523.5 805.5Q461 720 461 559Q461 398 523.5 312.5Q586 227 705 227Q822 227 884.0 312.5Q946 398 946 559Q946 720 884.0 805.5Q822 891 705 891ZM705 1147Q994 1147 1156.5 991.0Q1319 835 1319 559Q1319 283 1156.5 127.0Q994 -29 705 -29Q415 -29 251.5 127.0Q88 283 88 559Q88 835 251.5 991.0Q415 1147 705 1147Z" transform="translate(229.01 70.00) scale(0.009277 -0.009277)" fill="#17171A"/><path d="M1004 815Q957 837 910.5 847.5Q864 858 817 858Q679 858 604.5 769.5Q530 681 530 516V0H172V1120H530V936Q599 1046 688.5 1096.5Q778 1147 903 1147Q921 1147 942.0 1145.5Q963 1144 1003 1139Z" transform="translate(242.06 70.00) scale(0.009277 -0.009277)" fill="#17171A"/><path d="M807 1356Q587 1356 457.5 1192.0Q328 1028 328 745Q328 463 457.5 299.0Q587 135 807 135Q1027 135 1155.5 299.0Q1284 463 1284 745Q1284 1028 1155.5 1192.0Q1027 1356 807 1356ZM807 1520Q1121 1520 1309.0 1309.5Q1497 1099 1497 745Q1497 392 1309.0 181.5Q1121 -29 807 -29Q492 -29 303.5 181.0Q115 391 115 745Q115 1099 303.5 1309.5Q492 1520 807 1520Z" transform="translate(120.00 91.00) scale(0.005859 -0.005859)" fill="#6E6D73"/><path d="M842 948Q811 966 774.5 974.5Q738 983 694 983Q538 983 454.5 881.5Q371 780 371 590V0H186V1120H371V946Q429 1048 522.0 1097.5Q615 1147 748 1147Q767 1147 790.0 1144.5Q813 1142 841 1137Z" transform="translate(129.45 91.00) scale(0.005859 -0.005859)" fill="#6E6D73"/><path d="M930 573Q930 773 847.5 883.0Q765 993 616 993Q468 993 385.5 883.0Q303 773 303 573Q303 374 385.5 264.0Q468 154 616 154Q765 154 847.5 264.0Q930 374 930 573ZM1114 139Q1114 -147 987.0 -286.5Q860 -426 598 -426Q501 -426 415.0 -411.5Q329 -397 248 -367V-188Q329 -232 408.0 -253.0Q487 -274 569 -274Q750 -274 840.0 -179.5Q930 -85 930 106V197Q873 98 784.0 49.0Q695 0 571 0Q365 0 239.0 157.0Q113 314 113 573Q113 833 239.0 990.0Q365 1147 571 1147Q695 1147 784.0 1098.0Q873 1049 930 950V1120H1114Z" transform="translate(134.38 91.00) scale(0.005859 -0.005859)" fill="#6E6D73"/><path d="M702 563Q479 563 393.0 512.0Q307 461 307 338Q307 240 371.5 182.5Q436 125 547 125Q700 125 792.5 233.5Q885 342 885 522V563ZM1069 639V0H885V170Q822 68 728.0 19.5Q634 -29 498 -29Q326 -29 224.5 67.5Q123 164 123 326Q123 515 249.5 611.0Q376 707 627 707H885V725Q885 852 801.5 921.5Q718 991 567 991Q471 991 380.0 968.0Q289 945 205 899V1069Q306 1108 401.0 1127.5Q496 1147 586 1147Q829 1147 949.0 1021.0Q1069 895 1069 639Z" transform="translate(142.00 91.00) scale(0.005859 -0.005859)" fill="#6E6D73"/><path d="M1124 676V0H940V670Q940 829 878.0 908.0Q816 987 692 987Q543 987 457.0 892.0Q371 797 371 633V0H186V1120H371V946Q437 1047 526.5 1097.0Q616 1147 733 1147Q926 1147 1025.0 1027.5Q1124 908 1124 676Z" transform="translate(149.35 91.00) scale(0.005859 -0.005859)" fill="#6E6D73"/><path d="M193 1120H377V0H193ZM193 1556H377V1323H193Z" transform="translate(156.96 91.00) scale(0.005859 -0.005859)" fill="#6E6D73"/><path d="M113 1120H987V952L295 147H987V0H88V168L780 973H113Z" transform="translate(160.29 91.00) scale(0.005859 -0.005859)" fill="#6E6D73"/><path d="M702 563Q479 563 393.0 512.0Q307 461 307 338Q307 240 371.5 182.5Q436 125 547 125Q700 125 792.5 233.5Q885 342 885 522V563ZM1069 639V0H885V170Q822 68 728.0 19.5Q634 -29 498 -29Q326 -29 224.5 67.5Q123 164 123 326Q123 515 249.5 611.0Q376 707 627 707H885V725Q885 852 801.5 921.5Q718 991 567 991Q471 991 380.0 968.0Q289 945 205 899V1069Q306 1108 401.0 1127.5Q496 1147 586 1147Q829 1147 949.0 1021.0Q1069 895 1069 639Z" transform="translate(166.59 91.00) scale(0.005859 -0.005859)" fill="#6E6D73"/><path d="M1124 676V0H940V670Q940 829 878.0 908.0Q816 987 692 987Q543 987 457.0 892.0Q371 797 371 633V0H186V1120H371V946Q437 1047 526.5 1097.0Q616 1147 733 1147Q926 1147 1025.0 1027.5Q1124 908 1124 676Z" transform="translate(173.94 91.00) scale(0.005859 -0.005859)" fill="#6E6D73"/><path d="M930 950V1556H1114V0H930V168Q872 68 783.5 19.5Q695 -29 571 -29Q368 -29 240.5 133.0Q113 295 113 559Q113 823 240.5 985.0Q368 1147 571 1147Q695 1147 783.5 1098.5Q872 1050 930 950ZM303 559Q303 356 386.5 240.5Q470 125 616 125Q762 125 846.0 240.5Q930 356 930 559Q930 762 846.0 877.5Q762 993 616 993Q470 993 386.5 877.5Q303 762 303 559Z" transform="translate(181.55 91.00) scale(0.005859 -0.005859)" fill="#6E6D73"/><path d="M627 991Q479 991 393.0 875.5Q307 760 307 559Q307 358 392.5 242.5Q478 127 627 127Q774 127 860.0 243.0Q946 359 946 559Q946 758 860.0 874.5Q774 991 627 991ZM627 1147Q867 1147 1004.0 991.0Q1141 835 1141 559Q1141 284 1004.0 127.5Q867 -29 627 -29Q386 -29 249.5 127.5Q113 284 113 559Q113 835 249.5 991.0Q386 1147 627 1147Z" transform="translate(189.16 91.00) scale(0.005859 -0.005859)" fill="#6E6D73"/><path d="" transform="translate(196.51 91.00) scale(0.005859 -0.005859)" fill="#6E6D73"/><path d="M627 991Q479 991 393.0 875.5Q307 760 307 559Q307 358 392.5 242.5Q478 127 627 127Q774 127 860.0 243.0Q946 359 946 559Q946 758 860.0 874.5Q774 991 627 991ZM627 1147Q867 1147 1004.0 991.0Q1141 835 1141 559Q1141 284 1004.0 127.5Q867 -29 627 -29Q386 -29 249.5 127.5Q113 284 113 559Q113 835 249.5 991.0Q386 1147 627 1147Z" transform="translate(200.32 91.00) scale(0.005859 -0.005859)" fill="#6E6D73"/><path d="M371 168V-426H186V1120H371V950Q429 1050 517.5 1098.5Q606 1147 729 1147Q933 1147 1060.5 985.0Q1188 823 1188 559Q1188 295 1060.5 133.0Q933 -29 729 -29Q606 -29 517.5 19.5Q429 68 371 168ZM997 559Q997 762 913.5 877.5Q830 993 684 993Q538 993 454.5 877.5Q371 762 371 559Q371 356 454.5 240.5Q538 125 684 125Q830 125 913.5 240.5Q997 356 997 559Z" transform="translate(207.66 91.00) scale(0.005859 -0.005859)" fill="#6E6D73"/><path d="M999 1077V905Q921 948 842.5 969.5Q764 991 684 991Q505 991 406.0 877.5Q307 764 307 559Q307 354 406.0 240.5Q505 127 684 127Q764 127 842.5 148.5Q921 170 999 213V43Q922 7 839.5 -11.0Q757 -29 664 -29Q411 -29 262.0 130.0Q113 289 113 559Q113 833 263.5 990.0Q414 1147 676 1147Q761 1147 842.0 1129.5Q923 1112 999 1077Z" transform="translate(215.28 91.00) scale(0.005859 -0.005859)" fill="#6E6D73"/><path d="M193 1120H377V0H193ZM193 1556H377V1323H193Z" transform="translate(221.88 91.00) scale(0.005859 -0.005859)" fill="#6E6D73"/><path d="M627 991Q479 991 393.0 875.5Q307 760 307 559Q307 358 392.5 242.5Q478 127 627 127Q774 127 860.0 243.0Q946 359 946 559Q946 758 860.0 874.5Q774 991 627 991ZM627 1147Q867 1147 1004.0 991.0Q1141 835 1141 559Q1141 284 1004.0 127.5Q867 -29 627 -29Q386 -29 249.5 127.5Q113 284 113 559Q113 835 249.5 991.0Q386 1147 627 1147Z" transform="translate(225.21 91.00) scale(0.005859 -0.005859)" fill="#6E6D73"/><path d="M1124 676V0H940V670Q940 829 878.0 908.0Q816 987 692 987Q543 987 457.0 892.0Q371 797 371 633V0H186V1120H371V946Q437 1047 526.5 1097.0Q616 1147 733 1147Q926 1147 1025.0 1027.5Q1124 908 1124 676Z" transform="translate(232.55 91.00) scale(0.005859 -0.005859)" fill="#6E6D73"/><path d="M1151 606V516H305Q317 326 419.5 226.5Q522 127 705 127Q811 127 910.5 153.0Q1010 179 1108 231V57Q1009 15 905.0 -7.0Q801 -29 694 -29Q426 -29 269.5 127.0Q113 283 113 549Q113 824 261.5 985.5Q410 1147 662 1147Q888 1147 1019.5 1001.5Q1151 856 1151 606ZM967 660Q965 811 882.5 901.0Q800 991 664 991Q510 991 417.5 904.0Q325 817 311 659Z" transform="translate(240.16 91.00) scale(0.005859 -0.005859)" fill="#6E6D73"/><path d="M907 1087V913Q829 953 745.0 973.0Q661 993 571 993Q434 993 365.5 951.0Q297 909 297 825Q297 761 346.0 724.5Q395 688 543 655L606 641Q802 599 884.5 522.5Q967 446 967 309Q967 153 843.5 62.0Q720 -29 504 -29Q414 -29 316.5 -11.5Q219 6 111 41V231Q213 178 312.0 151.5Q411 125 508 125Q638 125 708.0 169.5Q778 214 778 295Q778 370 727.5 410.0Q677 450 506 487L442 502Q271 538 195.0 612.5Q119 687 119 817Q119 975 231.0 1061.0Q343 1147 549 1147Q651 1147 741.0 1132.0Q831 1117 907 1087Z" transform="translate(247.54 91.00) scale(0.005859 -0.005859)" fill="#6E6D73"/><rect x="821" y="56" width="72" height="28" rx="14" fill="#DF0926"/><path d="M573 1202V291H711Q947 291 1071.5 408.0Q1196 525 1196 748Q1196 970 1072.0 1086.0Q948 1202 711 1202ZM188 1493H594Q934 1493 1100.5 1444.5Q1267 1396 1386 1280Q1491 1179 1542.0 1047.0Q1593 915 1593 748Q1593 579 1542.0 446.5Q1491 314 1386 213Q1266 97 1098.0 48.5Q930 0 594 0H188Z" transform="translate(839.19 75.00) scale(0.005371 -0.005371)" fill="#FFFFFF"/><path d="M1290 563V461H453Q466 335 544.0 272.0Q622 209 762 209Q875 209 993.5 242.5Q1112 276 1237 344V68Q1110 20 983.0 -4.5Q856 -29 729 -29Q425 -29 256.5 125.5Q88 280 88 559Q88 833 253.5 990.0Q419 1147 709 1147Q973 1147 1131.5 988.0Q1290 829 1290 563ZM922 682Q922 784 862.5 846.5Q803 909 707 909Q603 909 538.0 850.5Q473 792 457 682Z" transform="translate(848.33 75.00) scale(0.005371 -0.005371)" fill="#FFFFFF"/><path d="M1210 934Q1278 1038 1371.5 1092.5Q1465 1147 1577 1147Q1770 1147 1871.0 1028.0Q1972 909 1972 682V0H1612V584Q1613 597 1613.5 611.0Q1614 625 1614 651Q1614 770 1579.0 823.5Q1544 877 1466 877Q1364 877 1308.5 793.0Q1253 709 1251 550V0H891V584Q891 770 859.0 823.5Q827 877 745 877Q642 877 586.0 792.5Q530 708 530 551V0H170V1120H530V956Q596 1051 681.5 1099.0Q767 1147 870 1147Q986 1147 1075.0 1091.0Q1164 1035 1210 934Z" transform="translate(855.79 75.00) scale(0.005371 -0.005371)" fill="#FFFFFF"/><path d="M705 891Q586 891 523.5 805.5Q461 720 461 559Q461 398 523.5 312.5Q586 227 705 227Q822 227 884.0 312.5Q946 398 946 559Q946 720 884.0 805.5Q822 891 705 891ZM705 1147Q994 1147 1156.5 991.0Q1319 835 1319 559Q1319 283 1156.5 127.0Q994 -29 705 -29Q415 -29 251.5 127.0Q88 283 88 559Q88 835 251.5 991.0Q415 1147 705 1147Z" transform="translate(867.25 75.00) scale(0.005371 -0.005371)" fill="#FFFFFF"/><rect x="40" y="130" width="214" height="470" rx="18" fill="#17171A"/><rect x="66" y="158" width="104" height="28" rx="14" fill="#DF0926"/><path d="M786 915Q877 915 924.0 955.0Q971 995 971 1073Q971 1150 924.0 1190.5Q877 1231 786 1231H573V915ZM799 262Q915 262 973.5 311.0Q1032 360 1032 459Q1032 556 974.0 604.5Q916 653 799 653H573V262ZM1157 799Q1281 763 1349.0 666.0Q1417 569 1417 428Q1417 212 1271.0 106.0Q1125 0 827 0H188V1493H766Q1077 1493 1216.5 1399.0Q1356 1305 1356 1098Q1356 989 1305.0 912.5Q1254 836 1157 799Z" transform="translate(88.02 177.00) scale(0.005371 -0.005371)" fill="#FFFFFF"/><path d="M160 436V1120H520V1008Q520 917 519.0 779.5Q518 642 518 596Q518 461 525.0 401.5Q532 342 549 315Q571 280 606.5 261.0Q642 242 688 242Q800 242 864.0 328.0Q928 414 928 567V1120H1286V0H928V162Q847 64 756.5 17.5Q666 -29 557 -29Q363 -29 261.5 90.0Q160 209 160 436Z" transform="translate(96.40 177.00) scale(0.005371 -0.005371)" fill="#FFFFFF"/><path d="M1047 1085V813Q932 861 825.0 885.0Q718 909 623 909Q521 909 471.5 883.5Q422 858 422 805Q422 762 459.5 739.0Q497 716 594 705L657 696Q932 661 1027.0 581.0Q1122 501 1122 330Q1122 151 990.0 61.0Q858 -29 596 -29Q485 -29 366.5 -11.5Q248 6 123 41V313Q230 261 342.5 235.0Q455 209 571 209Q676 209 729.0 238.0Q782 267 782 324Q782 372 745.5 395.5Q709 419 600 432L537 440Q298 470 202.0 551.0Q106 632 106 797Q106 975 228.0 1061.0Q350 1147 602 1147Q701 1147 810.0 1132.0Q919 1117 1047 1085Z" transform="translate(104.23 177.00) scale(0.005371 -0.005371)" fill="#FFFFFF"/><path d="M1077 1085V793Q1004 843 930.5 867.0Q857 891 778 891Q628 891 544.5 803.5Q461 716 461 559Q461 402 544.5 314.5Q628 227 778 227Q862 227 937.5 252.0Q1013 277 1077 326V33Q993 2 906.5 -13.5Q820 -29 733 -29Q430 -29 259.0 126.5Q88 282 88 559Q88 836 259.0 991.5Q430 1147 733 1147Q821 1147 906.5 1131.5Q992 1116 1077 1085Z" transform="translate(110.78 177.00) scale(0.005371 -0.005371)" fill="#FFFFFF"/><path d="M674 504Q562 504 505.5 466.0Q449 428 449 354Q449 286 494.5 247.5Q540 209 621 209Q722 209 791.0 281.5Q860 354 860 463V504ZM1221 639V0H860V166Q788 64 698.0 17.5Q608 -29 479 -29Q305 -29 196.5 72.5Q88 174 88 336Q88 533 223.5 625.0Q359 717 649 717H860V745Q860 830 793.0 869.5Q726 909 584 909Q469 909 370.0 886.0Q271 863 186 817V1090Q301 1118 417.0 1132.5Q533 1147 649 1147Q952 1147 1086.5 1027.5Q1221 908 1221 639Z" transform="translate(117.30 177.00) scale(0.005371 -0.005371)" fill="#FFFFFF"/><path d="M1298 682V0H938V111V522Q938 667 931.5 722.0Q925 777 909 803Q888 838 852.0 857.5Q816 877 770 877Q658 877 594.0 790.5Q530 704 530 551V0H172V1120H530V956Q611 1054 702.0 1100.5Q793 1147 903 1147Q1097 1147 1197.5 1028.0Q1298 909 1298 682Z" transform="translate(124.72 177.00) scale(0.005371 -0.005371)" fill="#FFFFFF"/><path d="M934 956V1556H1294V0H934V162Q860 63 771.0 17.0Q682 -29 565 -29Q358 -29 225.0 135.5Q92 300 92 559Q92 818 225.0 982.5Q358 1147 565 1147Q681 1147 770.5 1100.5Q860 1054 934 956ZM698 231Q813 231 873.5 315.0Q934 399 934 559Q934 719 873.5 803.0Q813 887 698 887Q584 887 523.5 803.0Q463 719 463 559Q463 399 523.5 315.0Q584 231 698 231Z" transform="translate(132.55 177.00) scale(0.005371 -0.005371)" fill="#FFFFFF"/><path d="M705 891Q586 891 523.5 805.5Q461 720 461 559Q461 398 523.5 312.5Q586 227 705 227Q822 227 884.0 312.5Q946 398 946 559Q946 720 884.0 805.5Q822 891 705 891ZM705 1147Q994 1147 1156.5 991.0Q1319 835 1319 559Q1319 283 1156.5 127.0Q994 -29 705 -29Q415 -29 251.5 127.0Q88 283 88 559Q88 835 251.5 991.0Q415 1147 705 1147Z" transform="translate(140.43 177.00) scale(0.005371 -0.005371)" fill="#FFFFFF"/><circle cx="147" cy="300" r="45" fill="none" stroke="#454247" stroke-width="9"/><path d="M147 255 A45 45 0 0 1 190 288" fill="none" stroke="#DF0926" stroke-width="9" stroke-linecap="round"/><rect x="278" y="168" width="187" height="356" rx="18" fill="#FFFFFF" stroke="#DDD9D2"/><rect x="298" y="194" width="86" height="10" rx="5" fill="#DCD7D0"/><rect x="298" y="226" width="140" height="18" rx="9" fill="#EEEAE4"/><rect x="298" y="274" width="147" height="8" rx="4" fill="#E4E0DA"/><rect x="298" y="299" width="116" height="8" rx="4" fill="#E4E0DA"/><rect x="298" y="342" width="147" height="52" rx="12" fill="#F3F0EA"/><rect x="298" y="466" width="147" height="34" rx="10" fill="#E8E4DE"/><rect x="485" y="168" width="187" height="356" rx="18" fill="#FFFFFF" stroke="#DDD9D2"/><rect x="505" y="194" width="86" height="10" rx="5" fill="#DCD7D0"/><rect x="505" y="226" width="140" height="18" rx="9" fill="#EEEAE4"/><rect x="505" y="274" width="147" height="8" rx="4" fill="#E4E0DA"/><rect x="505" y="299" width="116" height="8" rx="4" fill="#E4E0DA"/><rect x="505" y="342" width="147" height="52" rx="12" fill="#F3F0EA"/><rect x="505" y="466" width="147" height="34" rx="10" fill="#E8E4DE"/><rect x="692" y="168" width="187" height="356" rx="18" fill="#FFFFFF" stroke="#DDD9D2"/><rect x="712" y="194" width="86" height="10" rx="5" fill="#DCD7D0"/><rect x="712" y="226" width="140" height="18" rx="9" fill="#EEEAE4"/><rect x="712" y="274" width="147" height="8" rx="4" fill="#E4E0DA"/><rect x="712" y="299" width="116" height="8" rx="4" fill="#E4E0DA"/><rect x="712" y="342" width="147" height="52" rx="12" fill="#F3F0EA"/><rect x="712" y="466" width="147" height="34" rx="10" fill="#E8E4DE"/><path d="M403 1327V766H657Q798 766 875.0 839.0Q952 912 952 1047Q952 1181 875.0 1254.0Q798 1327 657 1327ZM201 1493H657Q908 1493 1036.5 1379.5Q1165 1266 1165 1047Q1165 826 1036.5 713.0Q908 600 657 600H403V0H201Z" transform="translate(467.88 565.00) scale(0.006836 -0.006836)" fill="#6E6D73"/><path d="M842 948Q811 966 774.5 974.5Q738 983 694 983Q538 983 454.5 881.5Q371 780 371 590V0H186V1120H371V946Q429 1048 522.0 1097.5Q615 1147 748 1147Q767 1147 790.0 1144.5Q813 1142 841 1137Z" transform="translate(476.32 565.00) scale(0.006836 -0.006836)" fill="#6E6D73"/><path d="M1151 606V516H305Q317 326 419.5 226.5Q522 127 705 127Q811 127 910.5 153.0Q1010 179 1108 231V57Q1009 15 905.0 -7.0Q801 -29 694 -29Q426 -29 269.5 127.0Q113 283 113 549Q113 824 261.5 985.5Q410 1147 662 1147Q888 1147 1019.5 1001.5Q1151 856 1151 606ZM967 660Q965 811 882.5 901.0Q800 991 664 991Q510 991 417.5 904.0Q325 817 311 659Z" transform="translate(482.08 565.00) scale(0.006836 -0.006836)" fill="#6E6D73"/><path d="M371 168V-426H186V1120H371V950Q429 1050 517.5 1098.5Q606 1147 729 1147Q933 1147 1060.5 985.0Q1188 823 1188 559Q1188 295 1060.5 133.0Q933 -29 729 -29Q606 -29 517.5 19.5Q429 68 371 168ZM997 559Q997 762 913.5 877.5Q830 993 684 993Q538 993 454.5 877.5Q371 762 371 559Q371 356 454.5 240.5Q538 125 684 125Q830 125 913.5 240.5Q997 356 997 559Z" transform="translate(490.69 565.00) scale(0.006836 -0.006836)" fill="#6E6D73"/><path d="M702 563Q479 563 393.0 512.0Q307 461 307 338Q307 240 371.5 182.5Q436 125 547 125Q700 125 792.5 233.5Q885 342 885 522V563ZM1069 639V0H885V170Q822 68 728.0 19.5Q634 -29 498 -29Q326 -29 224.5 67.5Q123 164 123 326Q123 515 249.5 611.0Q376 707 627 707H885V725Q885 852 801.5 921.5Q718 991 567 991Q471 991 380.0 968.0Q289 945 205 899V1069Q306 1108 401.0 1127.5Q496 1147 586 1147Q829 1147 949.0 1021.0Q1069 895 1069 639Z" transform="translate(499.58 565.00) scale(0.006836 -0.006836)" fill="#6E6D73"/><path d="M842 948Q811 966 774.5 974.5Q738 983 694 983Q538 983 454.5 881.5Q371 780 371 590V0H186V1120H371V946Q429 1048 522.0 1097.5Q615 1147 748 1147Q767 1147 790.0 1144.5Q813 1142 841 1137Z" transform="translate(508.16 565.00) scale(0.006836 -0.006836)" fill="#6E6D73"/><path d="M702 563Q479 563 393.0 512.0Q307 461 307 338Q307 240 371.5 182.5Q436 125 547 125Q700 125 792.5 233.5Q885 342 885 522V563ZM1069 639V0H885V170Q822 68 728.0 19.5Q634 -29 498 -29Q326 -29 224.5 67.5Q123 164 123 326Q123 515 249.5 611.0Q376 707 627 707H885V725Q885 852 801.5 921.5Q718 991 567 991Q471 991 380.0 968.0Q289 945 205 899V1069Q306 1108 401.0 1127.5Q496 1147 586 1147Q829 1147 949.0 1021.0Q1069 895 1069 639Z" transform="translate(513.91 565.00) scale(0.006836 -0.006836)" fill="#6E6D73"/><path d="M1124 676V0H940V670Q940 829 878.0 908.0Q816 987 692 987Q543 987 457.0 892.0Q371 797 371 633V0H186V1120H371V946Q437 1047 526.5 1097.0Q616 1147 733 1147Q926 1147 1025.0 1027.5Q1124 908 1124 676Z" transform="translate(522.49 565.00) scale(0.006836 -0.006836)" fill="#6E6D73"/><path d="M930 950V1556H1114V0H930V168Q872 68 783.5 19.5Q695 -29 571 -29Q368 -29 240.5 133.0Q113 295 113 559Q113 823 240.5 985.0Q368 1147 571 1147Q695 1147 783.5 1098.5Q872 1050 930 950ZM303 559Q303 356 386.5 240.5Q470 125 616 125Q762 125 846.0 240.5Q930 356 930 559Q930 762 846.0 877.5Q762 993 616 993Q470 993 386.5 877.5Q303 762 303 559Z" transform="translate(531.37 565.00) scale(0.006836 -0.006836)" fill="#6E6D73"/><path d="M627 991Q479 991 393.0 875.5Q307 760 307 559Q307 358 392.5 242.5Q478 127 627 127Q774 127 860.0 243.0Q946 359 946 559Q946 758 860.0 874.5Q774 991 627 991ZM627 1147Q867 1147 1004.0 991.0Q1141 835 1141 559Q1141 284 1004.0 127.5Q867 -29 627 -29Q386 -29 249.5 127.5Q113 284 113 559Q113 835 249.5 991.0Q386 1147 627 1147Z" transform="translate(540.25 565.00) scale(0.006836 -0.006836)" fill="#6E6D73"/><path d="" transform="translate(548.82 565.00) scale(0.006836 -0.006836)" fill="#6E6D73"/><path d="M193 1556H377V0H193Z" transform="translate(553.27 565.00) scale(0.006836 -0.006836)" fill="#6E6D73"/><path d="M702 563Q479 563 393.0 512.0Q307 461 307 338Q307 240 371.5 182.5Q436 125 547 125Q700 125 792.5 233.5Q885 342 885 522V563ZM1069 639V0H885V170Q822 68 728.0 19.5Q634 -29 498 -29Q326 -29 224.5 67.5Q123 164 123 326Q123 515 249.5 611.0Q376 707 627 707H885V725Q885 852 801.5 921.5Q718 991 567 991Q471 991 380.0 968.0Q289 945 205 899V1069Q306 1108 401.0 1127.5Q496 1147 586 1147Q829 1147 949.0 1021.0Q1069 895 1069 639Z" transform="translate(557.16 565.00) scale(0.006836 -0.006836)" fill="#6E6D73"/><path d="" transform="translate(565.74 565.00) scale(0.006836 -0.006836)" fill="#6E6D73"/><path d="M61 1120H256L606 180L956 1120H1151L731 0H481Z" transform="translate(570.19 565.00) scale(0.006836 -0.006836)" fill="#6E6D73"/><path d="M193 1120H377V0H193ZM193 1556H377V1323H193Z" transform="translate(578.47 565.00) scale(0.006836 -0.006836)" fill="#6E6D73"/><path d="M907 1087V913Q829 953 745.0 973.0Q661 993 571 993Q434 993 365.5 951.0Q297 909 297 825Q297 761 346.0 724.5Q395 688 543 655L606 641Q802 599 884.5 522.5Q967 446 967 309Q967 153 843.5 62.0Q720 -29 504 -29Q414 -29 316.5 -11.5Q219 6 111 41V231Q213 178 312.0 151.5Q411 125 508 125Q638 125 708.0 169.5Q778 214 778 295Q778 370 727.5 410.0Q677 450 506 487L442 502Q271 538 195.0 612.5Q119 687 119 817Q119 975 231.0 1061.0Q343 1147 549 1147Q651 1147 741.0 1132.0Q831 1117 907 1087Z" transform="translate(582.36 565.00) scale(0.006836 -0.006836)" fill="#6E6D73"/><path d="M375 1438V1120H754V977H375V369Q375 232 412.5 193.0Q450 154 565 154H754V0H565Q352 0 271.0 79.5Q190 159 190 369V977H55V1120H190V1438Z" transform="translate(589.66 565.00) scale(0.006836 -0.006836)" fill="#6E6D73"/><path d="M702 563Q479 563 393.0 512.0Q307 461 307 338Q307 240 371.5 182.5Q436 125 547 125Q700 125 792.5 233.5Q885 342 885 522V563ZM1069 639V0H885V170Q822 68 728.0 19.5Q634 -29 498 -29Q326 -29 224.5 67.5Q123 164 123 326Q123 515 249.5 611.0Q376 707 627 707H885V725Q885 852 801.5 921.5Q718 991 567 991Q471 991 380.0 968.0Q289 945 205 899V1069Q306 1108 401.0 1127.5Q496 1147 586 1147Q829 1147 949.0 1021.0Q1069 895 1069 639Z" transform="translate(595.15 565.00) scale(0.006836 -0.006836)" fill="#6E6D73"/><path d="" transform="translate(603.72 565.00) scale(0.006836 -0.006836)" fill="#6E6D73"/><path d="M999 1077V905Q921 948 842.5 969.5Q764 991 684 991Q505 991 406.0 877.5Q307 764 307 559Q307 354 406.0 240.5Q505 127 684 127Q764 127 842.5 148.5Q921 170 999 213V43Q922 7 839.5 -11.0Q757 -29 664 -29Q411 -29 262.0 130.0Q113 289 113 559Q113 833 263.5 990.0Q414 1147 676 1147Q761 1147 842.0 1129.5Q923 1112 999 1077Z" transform="translate(608.17 565.00) scale(0.006836 -0.006836)" fill="#6E6D73"/><path d="M627 991Q479 991 393.0 875.5Q307 760 307 559Q307 358 392.5 242.5Q478 127 627 127Q774 127 860.0 243.0Q946 359 946 559Q946 758 860.0 874.5Q774 991 627 991ZM627 1147Q867 1147 1004.0 991.0Q1141 835 1141 559Q1141 284 1004.0 127.5Q867 -29 627 -29Q386 -29 249.5 127.5Q113 284 113 559Q113 835 249.5 991.0Q386 1147 627 1147Z" transform="translate(615.87 565.00) scale(0.006836 -0.006836)" fill="#6E6D73"/><path d="M1065 905Q1134 1029 1230.0 1088.0Q1326 1147 1456 1147Q1631 1147 1726.0 1024.5Q1821 902 1821 676V0H1636V670Q1636 831 1579.0 909.0Q1522 987 1405 987Q1262 987 1179.0 892.0Q1096 797 1096 633V0H911V670Q911 832 854.0 909.5Q797 987 678 987Q537 987 454.0 891.5Q371 796 371 633V0H186V1120H371V946Q434 1049 522.0 1098.0Q610 1147 731 1147Q853 1147 938.5 1085.0Q1024 1023 1065 905Z" transform="translate(624.44 565.00) scale(0.006836 -0.006836)" fill="#6E6D73"/><path d="M371 168V-426H186V1120H371V950Q429 1050 517.5 1098.5Q606 1147 729 1147Q933 1147 1060.5 985.0Q1188 823 1188 559Q1188 295 1060.5 133.0Q933 -29 729 -29Q606 -29 517.5 19.5Q429 68 371 168ZM997 559Q997 762 913.5 877.5Q830 993 684 993Q538 993 454.5 877.5Q371 762 371 559Q371 356 454.5 240.5Q538 125 684 125Q830 125 913.5 240.5Q997 356 997 559Z" transform="translate(638.08 565.00) scale(0.006836 -0.006836)" fill="#6E6D73"/><path d="M702 563Q479 563 393.0 512.0Q307 461 307 338Q307 240 371.5 182.5Q436 125 547 125Q700 125 792.5 233.5Q885 342 885 522V563ZM1069 639V0H885V170Q822 68 728.0 19.5Q634 -29 498 -29Q326 -29 224.5 67.5Q123 164 123 326Q123 515 249.5 611.0Q376 707 627 707H885V725Q885 852 801.5 921.5Q718 991 567 991Q471 991 380.0 968.0Q289 945 205 899V1069Q306 1108 401.0 1127.5Q496 1147 586 1147Q829 1147 949.0 1021.0Q1069 895 1069 639Z" transform="translate(646.96 565.00) scale(0.006836 -0.006836)" fill="#6E6D73"/><path d="M842 948Q811 966 774.5 974.5Q738 983 694 983Q538 983 454.5 881.5Q371 780 371 590V0H186V1120H371V946Q429 1048 522.0 1097.5Q615 1147 748 1147Q767 1147 790.0 1144.5Q813 1142 841 1137Z" transform="translate(655.54 565.00) scale(0.006836 -0.006836)" fill="#6E6D73"/><path d="M702 563Q479 563 393.0 512.0Q307 461 307 338Q307 240 371.5 182.5Q436 125 547 125Q700 125 792.5 233.5Q885 342 885 522V563ZM1069 639V0H885V170Q822 68 728.0 19.5Q634 -29 498 -29Q326 -29 224.5 67.5Q123 164 123 326Q123 515 249.5 611.0Q376 707 627 707H885V725Q885 852 801.5 921.5Q718 991 567 991Q471 991 380.0 968.0Q289 945 205 899V1069Q306 1108 401.0 1127.5Q496 1147 586 1147Q829 1147 949.0 1021.0Q1069 895 1069 639Z" transform="translate(661.30 565.00) scale(0.006836 -0.006836)" fill="#6E6D73"/><path d="M375 1438V1120H754V977H375V369Q375 232 412.5 193.0Q450 154 565 154H754V0H565Q352 0 271.0 79.5Q190 159 190 369V977H55V1120H190V1438Z" transform="translate(669.88 565.00) scale(0.006836 -0.006836)" fill="#6E6D73"/><path d="M193 1120H377V0H193ZM193 1556H377V1323H193Z" transform="translate(675.37 565.00) scale(0.006836 -0.006836)" fill="#6E6D73"/><path d="M61 1120H256L606 180L956 1120H1151L731 0H481Z" transform="translate(679.25 565.00) scale(0.006836 -0.006836)" fill="#6E6D73"/><path d="M702 563Q479 563 393.0 512.0Q307 461 307 338Q307 240 371.5 182.5Q436 125 547 125Q700 125 792.5 233.5Q885 342 885 522V563ZM1069 639V0H885V170Q822 68 728.0 19.5Q634 -29 498 -29Q326 -29 224.5 67.5Q123 164 123 326Q123 515 249.5 611.0Q376 707 627 707H885V725Q885 852 801.5 921.5Q718 991 567 991Q471 991 380.0 968.0Q289 945 205 899V1069Q306 1108 401.0 1127.5Q496 1147 586 1147Q829 1147 949.0 1021.0Q1069 895 1069 639Z" transform="translate(687.54 565.00) scale(0.006836 -0.006836)" fill="#6E6D73"/><path d="M918 254H1130V0H918ZM1599 254H1812V0H1599ZM236 254H449V0H236Z" transform="translate(696.12 565.00) scale(0.006836 -0.006836)" fill="#6E6D73"/></svg>